<?xml version="1.0" encoding="UTF-8"?>
<svg id="_レイヤー_2" xmlns="http://www.w3.org/2000/svg" version="1.1" viewBox="0 0 283.5 283.5">
  <!-- Generator: Adobe Illustrator 29.0.0, SVG Export Plug-In . SVG Version: 2.1.0 Build 186)  -->
  <defs>
    <style>
      .st0 {
        fill: #1c2788;
      }

      .st1 {
        fill: #e60012;
      }
    </style>
  </defs>
  <g id="_レイヤー_1-2">
    <g>
      <path class="st1" d="M181.7,56.8c8.6,0,15.6-7,15.6-15.6s-7-15.6-15.6-15.6-15.6,7-15.6,15.6,7,15.6,15.6,15.6Z"/>
      <path class="st0" d="M118.1,90.6c2.6-18.3,8.9-35.3,13-45.2h28.6c-4.6,11.2-10.8,27.9-13.1,47.2-2.4,20.3,13.1,68.2,15.6,95.6,1.5,16.2-9.1,44.4-14.4,55.1h-29.5c5.3-16.1,14.8-35.1,14.4-53.8-.7-32-17.5-79.4-14.7-98.8Z"/>
    </g>
  </g>
</svg>